<svg xmlns="http://www.w3.org/2000/svg" viewBox="0 0 128 128" width="100%" height="100%">
  <path d="M 98 28 Q 70 -5 45 40" fill="none" stroke="#F6A000" stroke-width="3" stroke-linecap="round"/>

  <rect x="85" y="25" width="20" height="80" rx="3" fill="#F6A000" stroke="#2C2F33" stroke-width="3" />
  <line x1="95" y1="35" x2="95" y2="95" stroke="#2C2F33" stroke-width="4" stroke-linecap="round"/>

  <circle cx="100" cy="25" r="18" fill="#F5F5F5" stroke="#2C2F33" stroke-width="3" />
  <circle cx="100" cy="25" r="12" fill="#F6A000" />
  <circle cx="100" cy="25" r="4" fill="#2C2F33" />

  <rect x="15" y="100" width="98" height="16" rx="4" fill="#2C2F33" />
  <rect x="25" y="104" width="12" height="8" rx="2" fill="#555" />
  <rect x="27" y="106" width="8" height="4" rx="1" fill="#4CAF50" />

  <rect x="25" y="90" width="55" height="10" fill="#555555" stroke="#2C2F33" stroke-width="3" stroke-linejoin="round"/>
  <rect x="22" y="84" width="61" height="6" fill="#D3D3D3" stroke="#2C2F33" stroke-width="3" stroke-linejoin="round"/>

  <rect x="20" y="45" width="75" height="16" rx="2" fill="#2C2F33" />
  <line x1="25" y1="53" x2="80" y2="53" stroke="#555" stroke-width="2" stroke-linecap="round"/>

  <rect x="35" y="35" width="26" height="32" rx="4" fill="#FFFFFF" stroke="#2C2F33" stroke-width="3" />
  <circle cx="48" cy="51" r="7" fill="#2C2F33" />
  <polygon points="42,67 54,67 48,77" fill="#F6A000" stroke="#2C2F33" stroke-width="3" stroke-linejoin="round"/>
</svg>
